<svg width="800" height="800" viewBox="0 0 800 800" xmlns="http://www.w3.org/2000/svg">
  <defs>
    <!-- BACKGROUND GRADIENT -->
    <radialGradient id="bgGradient" cx="50%" cy="50%" r="70%">
      <stop offset="0%" stop-color="#fff9fb" />
      <stop offset="30%" stop-color="#fff0f5" />
      <stop offset="60%" stop-color="#ffe4ec" />
      <stop offset="100%" stop-color="#ffd6e0" />
    </radialGradient>
    
    <radialGradient id="softCircle" cx="50%" cy="50%" r="50%">
      <stop offset="0%" stop-color="rgba(255,182,193,0.3)" />
      <stop offset="100%" stop-color="rgba(255,182,193,0)" />
    </radialGradient>

    <!-- ENHANCED GLOW FROM CENTER -->
    <radialGradient id="centerGlow" cx="50%" cy="50%" r="50%">
      <stop offset="0%" stop-color="rgba(255,215,0,0.4)" />
      <stop offset="30%" stop-color="rgba(255,180,200,0.2)" />
      <stop offset="60%" stop-color="rgba(255,150,180,0.1)" />
      <stop offset="100%" stop-color="rgba(255,150,180,0)" />
    </radialGradient>

    <!-- SPARKLE GRADIENT -->
    <radialGradient id="sparkleGrad" cx="50%" cy="50%" r="50%">
      <stop offset="0%" stop-color="#ffffff" />
      <stop offset="50%" stop-color="#fffacd" />
      <stop offset="100%" stop-color="rgba(255,255,255,0)" />
    </radialGradient>

    <!-- DEWDROP GRADIENT -->
    <radialGradient id="dewdrop" cx="30%" cy="30%" r="60%">
      <stop offset="0%" stop-color="rgba(255,255,255,0.95)" />
      <stop offset="40%" stop-color="rgba(200,230,255,0.7)" />
      <stop offset="100%" stop-color="rgba(150,200,255,0.4)" />
    </radialGradient>

    <!-- LIGHT RAY GRADIENT -->
    <linearGradient id="lightRay" x1="50%" y1="0%" x2="50%" y2="100%">
      <stop offset="0%" stop-color="rgba(255,223,150,0.5)" />
      <stop offset="100%" stop-color="rgba(255,223,150,0)" />
    </linearGradient>

    <!-- FLOWER GRADIENTS - ALL SAME LIGHT PINK TONES -->
    <radialGradient id="grad1" cx="30%" cy="30%">
      <stop offset="0%" stop-color="#ffffff" />
      <stop offset="15%" stop-color="#fff5f7" />
      <stop offset="30%" stop-color="#ffe0e6" />
      <stop offset="45%" stop-color="#ffc0d1" />
      <stop offset="60%" stop-color="#ff9fb8" />
      <stop offset="75%" stop-color="#ff7096" />
      <stop offset="90%" stop-color="#ff5a8a" />
      <stop offset="100%" stop-color="#ff4d80" />
    </radialGradient>
    <radialGradient id="grad2" cx="40%" cy="40%">
      <stop offset="0%" stop-color="#ffffff" />
      <stop offset="20%" stop-color="#fff0f5" />
      <stop offset="40%" stop-color="#ffe0eb" />
      <stop offset="60%" stop-color="#ffb8d0" />
      <stop offset="80%" stop-color="#ff8cb8" />
      <stop offset="100%" stop-color="#ff6da3" />
    </radialGradient>
    <radialGradient id="grad3" cx="50%" cy="30%">
      <stop offset="0%" stop-color="#ffffff" />
      <stop offset="25%" stop-color="#fff0f5" />
      <stop offset="50%" stop-color="#ffd6e7" />
      <stop offset="75%" stop-color="#ffadd2" />
      <stop offset="100%" stop-color="#ff85bd" />
    </radialGradient>
    <radialGradient id="grad4" cx="35%" cy="35%">
      <stop offset="0%" stop-color="#ffffff" />
      <stop offset="30%" stop-color="#fff0f5" />
      <stop offset="60%" stop-color="#ffc0dd" />
      <stop offset="100%" stop-color="#ff7eb8" />
    </radialGradient>

    <linearGradient id="sheen" x1="0%" y1="0%" x2="100%" y2="100%">
      <stop offset="0%" stop-color="white" stop-opacity="0.6" />
      <stop offset="50%" stop-color="white" stop-opacity="0.2" />
      <stop offset="100%" stop-color="white" stop-opacity="0" />
    </linearGradient>

    <linearGradient id="shimmer" x1="0%" y1="0%" x2="100%" y2="100%">
      <stop offset="0%" stop-color="rgba(255,255,255,0)" />
      <stop offset="50%" stop-color="rgba(255,255,255,0.8)" />
      <stop offset="100%" stop-color="rgba(255,255,255,0)" />
    </linearGradient>

    <pattern id="cellPattern" x="0" y="0" width="6" height="6" patternUnits="userSpaceOnUse">
      <path d="M 3 0 L 6 3 L 3 6 L 0 3 Z" fill="none" stroke="rgba(255,255,255,0.15)" stroke-width="0.3"/>
    </pattern>

    <!-- FILTERS -->
    <filter id="bloom">
      <feGaussianBlur in="SourceGraphic" stdDeviation="6" result="blur" />
      <feColorMatrix in="blur" mode="matrix" values="1.5 0 0 0 0  0 1.5 0 0 0  0 0 1.5 0 0  0 0 0 1 0" result="glow"/>
      <feComposite in="SourceGraphic" in2="glow" operator="over"/>
    </filter>
    <filter id="softGlow">
      <feGaussianBlur stdDeviation="4" result="coloredBlur"/>
      <feMerge><feMergeNode in="coloredBlur"/><feMergeNode in="SourceGraphic"/></feMerge>
    </filter>
    <filter id="sparkleGlow">
      <feGaussianBlur stdDeviation="2" result="blur"/>
      <feMerge><feMergeNode in="blur"/><feMergeNode in="blur"/><feMergeNode in="SourceGraphic"/></feMerge>
    </filter>

    <!-- SPARKLE SHAPE -->
    <g id="sparkle">
      <path d="M0,-8 L1,-1 L8,0 L1,1 L0,8 L-1,1 L-8,0 L-1,-1 Z" fill="white" filter="url(#sparkleGlow)"/>
    </g>
    <g id="sparkle-small">
      <path d="M0,-5 L0.7,-0.7 L5,0 L0.7,0.7 L0,5 L-0.7,0.7 L-5,0 L-0.7,-0.7 Z" fill="white" filter="url(#sparkleGlow)"/>
    </g>
    <g id="sparkle-tiny">
      <circle r="2" fill="white" filter="url(#sparkleGlow)"/>
    </g>

    <!-- DEWDROP SHAPE -->
    <g id="dewdropShape">
      <ellipse rx="6" ry="5" fill="url(#dewdrop)" />
      <ellipse rx="2" ry="1.5" cx="-2" cy="-1.5" fill="rgba(255,255,255,0.9)" />
    </g>

    <!-- PETAL DEFINITIONS -->
    <path id="d1" d="M400,120 C350,180 340,280 360,400 Q380,380 400,350 Q420,380 440,400 C460,280 450,180 400,120 Z" />
    <path id="d2" d="M400,160 C360,210 355,300 370,400 Q385,385 400,365 Q415,385 430,400 C445,300 440,210 400,160 Z" />
    <path id="d3" d="M400,200 C370,240 368,320 380,400 Q390,390 400,375 Q410,390 420,400 C432,320 430,240 400,200 Z" />
    <path id="d4" d="M400,240 C380,270 378,340 385,400 Q392,392 400,380 Q408,392 415,400 C422,340 420,270 400,240 Z" />

    <!-- Petal Assemblies - NO MIX BLEND MODE -->
    <g id="petal1-g1">
      <use href="#d1" fill="url(#grad1)" opacity="1" filter="url(#bloom)" />
      <use href="#d1" fill="url(#cellPattern)" opacity="0.4" />
      <use href="#d1" fill="url(#shimmer)" opacity="0.3" />
      <use href="#d1" fill="url(#sheen)" opacity="0.6" />
      <path d="M400,140 Q390,220 395,340" stroke="rgba(139,0,139,0.25)" stroke-width="1.8" fill="none"/>
      <path d="M400,140 Q410,220 405,340" stroke="rgba(139,0,139,0.25)" stroke-width="1.8" fill="none"/>
      <use href="#d1" fill="none" stroke="#f9a8d4" stroke-width="2" />
    </g>
    <g id="petal1-g2">
      <use href="#d1" fill="url(#grad2)" opacity="1" filter="url(#bloom)" />
      <use href="#d1" fill="url(#cellPattern)" opacity="0.4" />
      <use href="#d1" fill="url(#shimmer)" opacity="0.3" />
      <use href="#d1" fill="url(#sheen)" opacity="0.6" />
      <path d="M400,140 Q390,220 395,340" stroke="rgba(139,0,139,0.25)" stroke-width="1.8" fill="none"/>
      <path d="M400,140 Q410,220 405,340" stroke="rgba(139,0,139,0.25)" stroke-width="1.8" fill="none"/>
      <use href="#d1" fill="none" stroke="#f9a8d4" stroke-width="2" />
    </g>
    <g id="petal1-g3">
      <use href="#d1" fill="url(#grad3)" opacity="1" filter="url(#bloom)" />
      <use href="#d1" fill="url(#cellPattern)" opacity="0.4" />
      <use href="#d1" fill="url(#shimmer)" opacity="0.3" />
      <use href="#d1" fill="url(#sheen)" opacity="0.6" />
      <path d="M400,140 Q390,220 395,340" stroke="rgba(139,0,139,0.25)" stroke-width="1.8" fill="none"/>
      <path d="M400,140 Q410,220 405,340" stroke="rgba(139,0,139,0.25)" stroke-width="1.8" fill="none"/>
      <use href="#d1" fill="none" stroke="#f9a8d4" stroke-width="2" />
    </g>
    <g id="petal1-g4">
      <use href="#d1" fill="url(#grad4)" opacity="1" filter="url(#bloom)" />
      <use href="#d1" fill="url(#cellPattern)" opacity="0.4" />
      <use href="#d1" fill="url(#shimmer)" opacity="0.3" />
      <use href="#d1" fill="url(#sheen)" opacity="0.6" />
      <path d="M400,140 Q390,220 395,340" stroke="rgba(139,0,139,0.25)" stroke-width="1.8" fill="none"/>
      <path d="M400,140 Q410,220 405,340" stroke="rgba(139,0,139,0.25)" stroke-width="1.8" fill="none"/>
      <use href="#d1" fill="none" stroke="#f9a8d4" stroke-width="2" />
    </g>

    <g id="petal2-base">
        <use href="#d2" opacity="1" filter="url(#softGlow)" />
        <use href="#d2" fill="url(#shimmer)" opacity="0.4" />
        <use href="#d2" fill="url(#sheen)" opacity="0.5" />
        <path d="M400,175 Q392,250 395,360" stroke="rgba(139,0,139,0.2)" stroke-width="1.5" fill="none"/>
        <use href="#d2" fill="none" stroke="#fbcfe8" stroke-width="1.5" />
    </g>

    <g id="petal3-base">
        <use href="#d3" opacity="1" filter="url(#softGlow)" />
        <use href="#d3" fill="url(#shimmer)" opacity="0.5" />
        <use href="#d3" fill="url(#sheen)" opacity="0.6" />
        <path d="M400,215 Q395,280 398,370" stroke="rgba(139,0,139,0.18)" stroke-width="1.2" fill="none"/>
    </g>

    <g id="petal4-base">
        <use href="#d4" fill="url(#grad4)" opacity="1" filter="url(#softGlow)" />
        <use href="#d4" fill="url(#shimmer)" opacity="0.6" />
        <use href="#d4" fill="url(#sheen)" opacity="0.7" />
    </g>
    
    <g id="stamen-outer">
       <line x1="400" y1="400" x2="400" y2="340" stroke="#ffeb3b" stroke-width="1.5" opacity="0.7" filter="url(#softGlow)" />
       <circle cx="400" cy="340" r="5" fill="#fff59d" filter="url(#softGlow)" />
       <circle cx="400" cy="340" r="3" fill="#ffd54f" />
       <circle cx="400" cy="340" r="1.5" fill="#ffeb3b" />
    </g>
    <g id="stamen-inner">
       <line x1="400" y1="400" x2="400" y2="360" stroke="#ffd54f" stroke-width="1.2" opacity="0.6" />
       <circle cx="400" cy="360" r="3.5" fill="#ffeb3b" filter="url(#softGlow)" />
       <circle cx="400" cy="360" r="2" fill="#ffc107" />
    </g>

  </defs>

  <!-- ========== BACKGROUND ========== -->
  <rect width="800" height="800" fill="url(#bgGradient)" />
  
  <!-- Subtle decorative circles -->
  <circle cx="100" cy="100" r="80" fill="url(#softCircle)" />
  <circle cx="700" cy="150" r="60" fill="url(#softCircle)" />
  <circle cx="720" cy="680" r="90" fill="url(#softCircle)" />
  <circle cx="80" cy="720" r="70" fill="url(#softCircle)" />
  <circle cx="150" cy="400" r="50" fill="url(#softCircle)" />
  <circle cx="650" cy="400" r="55" fill="url(#softCircle)" />

  <!-- ========== LIGHT RAYS FROM CENTER ========== -->
  <g opacity="0.4">
    <polygon points="400,400 380,100 420,100" fill="url(#lightRay)" />
    <polygon points="400,400 380,100 420,100" fill="url(#lightRay)" transform="rotate(30 400 400)" />
    <polygon points="400,400 380,100 420,100" fill="url(#lightRay)" transform="rotate(60 400 400)" />
    <polygon points="400,400 380,100 420,100" fill="url(#lightRay)" transform="rotate(90 400 400)" />
    <polygon points="400,400 380,100 420,100" fill="url(#lightRay)" transform="rotate(120 400 400)" />
    <polygon points="400,400 380,100 420,100" fill="url(#lightRay)" transform="rotate(150 400 400)" />
    <polygon points="400,400 380,100 420,100" fill="url(#lightRay)" transform="rotate(180 400 400)" />
    <polygon points="400,400 380,100 420,100" fill="url(#lightRay)" transform="rotate(210 400 400)" />
    <polygon points="400,400 380,100 420,100" fill="url(#lightRay)" transform="rotate(240 400 400)" />
    <polygon points="400,400 380,100 420,100" fill="url(#lightRay)" transform="rotate(270 400 400)" />
    <polygon points="400,400 380,100 420,100" fill="url(#lightRay)" transform="rotate(300 400 400)" />
    <polygon points="400,400 380,100 420,100" fill="url(#lightRay)" transform="rotate(330 400 400)" />
  </g>

  <!-- ========== CENTER GLOW (behind flower) ========== -->
  <circle cx="400" cy="400" r="280" fill="url(#centerGlow)" />

  <!-- ========== FLOWER ========== -->
  <g> 
    <!-- LAYER 1 (Outer - 24 Petals) -->
    <g>
        <use href="#petal1-g1" transform="rotate(0 400 400)" />
        <use href="#petal1-g2" transform="rotate(15 400 400)" />
        <use href="#petal1-g3" transform="rotate(30 400 400)" />
        <use href="#petal1-g4" transform="rotate(45 400 400)" />
        <use href="#petal1-g1" transform="rotate(60 400 400)" />
        <use href="#petal1-g2" transform="rotate(75 400 400)" />
        <use href="#petal1-g3" transform="rotate(90 400 400)" />
        <use href="#petal1-g4" transform="rotate(105 400 400)" />
        <use href="#petal1-g1" transform="rotate(120 400 400)" />
        <use href="#petal1-g2" transform="rotate(135 400 400)" />
        <use href="#petal1-g3" transform="rotate(150 400 400)" />
        <use href="#petal1-g4" transform="rotate(165 400 400)" />
        <use href="#petal1-g1" transform="rotate(180 400 400)" />
        <use href="#petal1-g2" transform="rotate(195 400 400)" />
        <use href="#petal1-g3" transform="rotate(210 400 400)" />
        <use href="#petal1-g4" transform="rotate(225 400 400)" />
        <use href="#petal1-g1" transform="rotate(240 400 400)" />
        <use href="#petal1-g2" transform="rotate(255 400 400)" />
        <use href="#petal1-g3" transform="rotate(270 400 400)" />
        <use href="#petal1-g4" transform="rotate(285 400 400)" />
        <use href="#petal1-g1" transform="rotate(300 400 400)" />
        <use href="#petal1-g2" transform="rotate(315 400 400)" />
        <use href="#petal1-g3" transform="rotate(330 400 400)" />
        <use href="#petal1-g4" transform="rotate(345 400 400)" />
    </g>

    <!-- LAYER 2 (18 Petals) -->
    <g>
        <use href="#petal2-base" fill="url(#grad2)" transform="rotate(10 400 400)" />
        <use href="#petal2-base" fill="url(#grad3)" transform="rotate(30 400 400)" />
        <use href="#petal2-base" fill="url(#grad4)" transform="rotate(50 400 400)" />
        <use href="#petal2-base" fill="url(#grad2)" transform="rotate(70 400 400)" />
        <use href="#petal2-base" fill="url(#grad3)" transform="rotate(90 400 400)" />
        <use href="#petal2-base" fill="url(#grad4)" transform="rotate(110 400 400)" />
        <use href="#petal2-base" fill="url(#grad2)" transform="rotate(130 400 400)" />
        <use href="#petal2-base" fill="url(#grad3)" transform="rotate(150 400 400)" />
        <use href="#petal2-base" fill="url(#grad4)" transform="rotate(170 400 400)" />
        <use href="#petal2-base" fill="url(#grad2)" transform="rotate(190 400 400)" />
        <use href="#petal2-base" fill="url(#grad3)" transform="rotate(210 400 400)" />
        <use href="#petal2-base" fill="url(#grad4)" transform="rotate(230 400 400)" />
        <use href="#petal2-base" fill="url(#grad2)" transform="rotate(250 400 400)" />
        <use href="#petal2-base" fill="url(#grad3)" transform="rotate(270 400 400)" />
        <use href="#petal2-base" fill="url(#grad4)" transform="rotate(290 400 400)" />
        <use href="#petal2-base" fill="url(#grad2)" transform="rotate(310 400 400)" />
        <use href="#petal2-base" fill="url(#grad3)" transform="rotate(330 400 400)" />
        <use href="#petal2-base" fill="url(#grad4)" transform="rotate(350 400 400)" />
    </g>

    <!-- LAYER 3 (12 Petals) -->
    <g>
        <use href="#petal3-base" fill="url(#grad3)" transform="rotate(0 400 400)" />
        <use href="#petal3-base" fill="url(#grad4)" transform="rotate(30 400 400)" />
        <use href="#petal3-base" fill="url(#grad3)" transform="rotate(60 400 400)" />
        <use href="#petal3-base" fill="url(#grad4)" transform="rotate(90 400 400)" />
        <use href="#petal3-base" fill="url(#grad3)" transform="rotate(120 400 400)" />
        <use href="#petal3-base" fill="url(#grad4)" transform="rotate(150 400 400)" />
        <use href="#petal3-base" fill="url(#grad3)" transform="rotate(180 400 400)" />
        <use href="#petal3-base" fill="url(#grad4)" transform="rotate(210 400 400)" />
        <use href="#petal3-base" fill="url(#grad3)" transform="rotate(240 400 400)" />
        <use href="#petal3-base" fill="url(#grad4)" transform="rotate(270 400 400)" />
        <use href="#petal3-base" fill="url(#grad3)" transform="rotate(300 400 400)" />
        <use href="#petal3-base" fill="url(#grad4)" transform="rotate(330 400 400)" />
    </g>

    <!-- LAYER 4 (8 Petals) -->
    <g>
        <use href="#petal4-base" transform="rotate(22.5 400 400)" />
        <use href="#petal4-base" transform="rotate(67.5 400 400)" />
        <use href="#petal4-base" transform="rotate(112.5 400 400)" />
        <use href="#petal4-base" transform="rotate(157.5 400 400)" />
        <use href="#petal4-base" transform="rotate(202.5 400 400)" />
        <use href="#petal4-base" transform="rotate(247.5 400 400)" />
        <use href="#petal4-base" transform="rotate(292.5 400 400)" />
        <use href="#petal4-base" transform="rotate(337.5 400 400)" />
    </g>

    <!-- STAMENS (Outer - 30) -->
    <g>
       <use href="#stamen-outer" transform="rotate(0 400 400)" />
       <use href="#stamen-outer" transform="rotate(12 400 400)" />
       <use href="#stamen-outer" transform="rotate(24 400 400)" />
       <use href="#stamen-outer" transform="rotate(36 400 400)" />
       <use href="#stamen-outer" transform="rotate(48 400 400)" />
       <use href="#stamen-outer" transform="rotate(60 400 400)" />
       <use href="#stamen-outer" transform="rotate(72 400 400)" />
       <use href="#stamen-outer" transform="rotate(84 400 400)" />
       <use href="#stamen-outer" transform="rotate(96 400 400)" />
       <use href="#stamen-outer" transform="rotate(108 400 400)" />
       <use href="#stamen-outer" transform="rotate(120 400 400)" />
       <use href="#stamen-outer" transform="rotate(132 400 400)" />
       <use href="#stamen-outer" transform="rotate(144 400 400)" />
       <use href="#stamen-outer" transform="rotate(156 400 400)" />
       <use href="#stamen-outer" transform="rotate(168 400 400)" />
       <use href="#stamen-outer" transform="rotate(180 400 400)" />
       <use href="#stamen-outer" transform="rotate(192 400 400)" />
       <use href="#stamen-outer" transform="rotate(204 400 400)" />
       <use href="#stamen-outer" transform="rotate(216 400 400)" />
       <use href="#stamen-outer" transform="rotate(228 400 400)" />
       <use href="#stamen-outer" transform="rotate(240 400 400)" />
       <use href="#stamen-outer" transform="rotate(252 400 400)" />
       <use href="#stamen-outer" transform="rotate(264 400 400)" />
       <use href="#stamen-outer" transform="rotate(276 400 400)" />
       <use href="#stamen-outer" transform="rotate(288 400 400)" />
       <use href="#stamen-outer" transform="rotate(300 400 400)" />
       <use href="#stamen-outer" transform="rotate(312 400 400)" />
       <use href="#stamen-outer" transform="rotate(324 400 400)" />
       <use href="#stamen-outer" transform="rotate(336 400 400)" />
       <use href="#stamen-outer" transform="rotate(348 400 400)" />
    </g>

    <!-- STAMENS (Inner - 20) -->
    <g>
       <use href="#stamen-inner" transform="rotate(8 400 400)" />
       <use href="#stamen-inner" transform="rotate(26 400 400)" />
       <use href="#stamen-inner" transform="rotate(44 400 400)" />
       <use href="#stamen-inner" transform="rotate(62 400 400)" />
       <use href="#stamen-inner" transform="rotate(80 400 400)" />
       <use href="#stamen-inner" transform="rotate(98 400 400)" />
       <use href="#stamen-inner" transform="rotate(116 400 400)" />
       <use href="#stamen-inner" transform="rotate(134 400 400)" />
       <use href="#stamen-inner" transform="rotate(152 400 400)" />
       <use href="#stamen-inner" transform="rotate(170 400 400)" />
       <use href="#stamen-inner" transform="rotate(188 400 400)" />
       <use href="#stamen-inner" transform="rotate(206 400 400)" />
       <use href="#stamen-inner" transform="rotate(224 400 400)" />
       <use href="#stamen-inner" transform="rotate(242 400 400)" />
       <use href="#stamen-inner" transform="rotate(260 400 400)" />
       <use href="#stamen-inner" transform="rotate(278 400 400)" />
       <use href="#stamen-inner" transform="rotate(296 400 400)" />
       <use href="#stamen-inner" transform="rotate(314 400 400)" />
       <use href="#stamen-inner" transform="rotate(332 400 400)" />
       <use href="#stamen-inner" transform="rotate(350 400 400)" />
    </g>
    
    <!-- CORE -->
    <circle cx="400" cy="400" r="30" fill="#fff59d" opacity="0.3" filter="url(#softGlow)" />
    <circle cx="400" cy="400" r="27" fill="#ffd54f" filter="url(#softGlow)" />
    <circle cx="400" cy="400" r="23" fill="#ffb300" filter="url(#softGlow)" />
    <circle cx="400" cy="400" r="18" fill="#ff8f00" />
    <circle cx="400" cy="400" r="13" fill="#ff6f00" />
    <circle cx="400" cy="400" r="8" fill="#e65100" />
    <circle cx="400" cy="400" r="4" fill="#bf360c" />
    
    <!-- Center Highlight -->
    <ellipse cx="392" cy="392" rx="15" ry="12" fill="rgba(255,255,255,0.5)" />
    <ellipse cx="395" cy="395" rx="10" ry="8" fill="rgba(255,255,255,0.6)" />
  </g>

  <!-- ========== DEWDROPS ON PETALS ========== -->
  <g>
    <use href="#dewdropShape" transform="translate(400, 160)" />
    <use href="#dewdropShape" transform="translate(340, 200) scale(0.8)" />
    <use href="#dewdropShape" transform="translate(460, 200) scale(0.8)" />
    <use href="#dewdropShape" transform="translate(280, 280) scale(0.7)" />
    <use href="#dewdropShape" transform="translate(520, 280) scale(0.7)" />
    <use href="#dewdropShape" transform="translate(220, 350) scale(0.6)" />
    <use href="#dewdropShape" transform="translate(580, 350) scale(0.6)" />
    <use href="#dewdropShape" transform="translate(180, 420) scale(0.7)" />
    <use href="#dewdropShape" transform="translate(620, 420) scale(0.7)" />
    <use href="#dewdropShape" transform="translate(240, 520) scale(0.6)" />
    <use href="#dewdropShape" transform="translate(560, 520) scale(0.6)" />
    <use href="#dewdropShape" transform="translate(320, 580) scale(0.7)" />
    <use href="#dewdropShape" transform="translate(480, 580) scale(0.7)" />
    <use href="#dewdropShape" transform="translate(400, 620) scale(0.8)" />
  </g>

  <!-- ========== SPARKLES ========== -->
  <g>
    <!-- Large sparkles -->
    <use href="#sparkle" transform="translate(400, 95)" opacity="0.9" />
    <use href="#sparkle" transform="translate(550, 180)" opacity="0.8" />
    <use href="#sparkle" transform="translate(250, 180)" opacity="0.8" />
    <use href="#sparkle" transform="translate(620, 320)" opacity="0.85" />
    <use href="#sparkle" transform="translate(180, 320)" opacity="0.85" />
    <use href="#sparkle" transform="translate(620, 480)" opacity="0.8" />
    <use href="#sparkle" transform="translate(180, 480)" opacity="0.8" />
    <use href="#sparkle" transform="translate(550, 620)" opacity="0.85" />
    <use href="#sparkle" transform="translate(250, 620)" opacity="0.85" />
    <use href="#sparkle" transform="translate(400, 705)" opacity="0.9" />
    
    <!-- Medium sparkles -->
    <use href="#sparkle-small" transform="translate(470, 130)" opacity="0.7" />
    <use href="#sparkle-small" transform="translate(330, 130)" opacity="0.7" />
    <use href="#sparkle-small" transform="translate(590, 250)" opacity="0.75" />
    <use href="#sparkle-small" transform="translate(210, 250)" opacity="0.75" />
    <use href="#sparkle-small" transform="translate(650, 400)" opacity="0.7" />
    <use href="#sparkle-small" transform="translate(150, 400)" opacity="0.7" />
    <use href="#sparkle-small" transform="translate(590, 550)" opacity="0.75" />
    <use href="#sparkle-small" transform="translate(210, 550)" opacity="0.75" />
    <use href="#sparkle-small" transform="translate(470, 670)" opacity="0.7" />
    <use href="#sparkle-small" transform="translate(330, 670)" opacity="0.7" />
    
    <!-- Tiny sparkles scattered -->
    <use href="#sparkle-tiny" transform="translate(430, 110)" opacity="0.6" />
    <use href="#sparkle-tiny" transform="translate(370, 115)" opacity="0.5" />
    <use href="#sparkle-tiny" transform="translate(500, 150)" opacity="0.6" />
    <use href="#sparkle-tiny" transform="translate(300, 155)" opacity="0.55" />
    <use href="#sparkle-tiny" transform="translate(570, 210)" opacity="0.5" />
    <use href="#sparkle-tiny" transform="translate(230, 215)" opacity="0.6" />
    <use href="#sparkle-tiny" transform="translate(640, 290)" opacity="0.55" />
    <use href="#sparkle-tiny" transform="translate(160, 295)" opacity="0.5" />
    <use href="#sparkle-tiny" transform="translate(670, 380)" opacity="0.6" />
    <use href="#sparkle-tiny" transform="translate(130, 385)" opacity="0.55" />
    <use href="#sparkle-tiny" transform="translate(670, 450)" opacity="0.5" />
    <use href="#sparkle-tiny" transform="translate(130, 455)" opacity="0.6" />
    <use href="#sparkle-tiny" transform="translate(640, 530)" opacity="0.55" />
    <use href="#sparkle-tiny" transform="translate(160, 535)" opacity="0.5" />
    <use href="#sparkle-tiny" transform="translate(570, 600)" opacity="0.6" />
    <use href="#sparkle-tiny" transform="translate(230, 605)" opacity="0.55" />
    <use href="#sparkle-tiny" transform="translate(500, 660)" opacity="0.5" />
    <use href="#sparkle-tiny" transform="translate(300, 655)" opacity="0.6" />
    <use href="#sparkle-tiny" transform="translate(430, 695)" opacity="0.55" />
    <use href="#sparkle-tiny" transform="translate(370, 690)" opacity="0.5" />
  </g>

  <!-- ========== FLOATING POLLEN/PARTICLES ========== -->
  <g opacity="0.5">
    <circle cx="120" cy="200" r="3" fill="#ffd700" filter="url(#softGlow)" />
    <circle cx="680" cy="250" r="2.5" fill="#ffd700" filter="url(#softGlow)" />
    <circle cx="90" cy="450" r="2" fill="#ffb6c1" filter="url(#softGlow)" />
    <circle cx="710" cy="500" r="3" fill="#ffb6c1" filter="url(#softGlow)" />
    <circle cx="150" cy="650" r="2.5" fill="#ffd700" filter="url(#softGlow)" />
    <circle cx="650" cy="680" r="2" fill="#ffd700" filter="url(#softGlow)" />
    <circle cx="100" cy="350" r="2" fill="#fffacd" filter="url(#softGlow)" />
    <circle cx="700" cy="380" r="2.5" fill="#fffacd" filter="url(#softGlow)" />
    <circle cx="200" cy="100" r="2" fill="#ffb6c1" filter="url(#softGlow)" />
    <circle cx="600" cy="90" r="2.5" fill="#ffd700" filter="url(#softGlow)" />
    <circle cx="180" cy="720" r="2" fill="#fffacd" filter="url(#softGlow)" />
    <circle cx="620" cy="730" r="2.5" fill="#ffb6c1" filter="url(#softGlow)" />
  </g>

</svg>
